<svg xmlns="http://www.w3.org/2000/svg" viewBox="0 0 448 512">
<path d="M224,202.66A53.34,53.34,0,1,0,277.34,256,53.38,53.38,0,0,0,224,202.66Zm124.71-41a54,54,0,0,0-30.46-30.46c-21-8.3-71-6.4-94.25-6.4s-73.21-1.9-94.25,6.4a54,54,0,0,0-30.46,30.46c-8.3,21-6.4,71-6.4,94.25s-1.9,73.21,6.4,94.25a54,54,0,0,0,30.46,30.46c21,8.3,71,6.4,94.25,6.4s73.21,1.9,94.25-6.4a54,54,0,0,0,30.46-30.46c8.3-21,6.4-71,6.4-94.25S356.99,182.71,348.71,161.64ZM224,338a82,82,0,1,1,82-82A82,82,0,0,1,224,338Zm85.38-148.49a19.18,19.18,0,1,1,19.18-19.18A19.18,19.18,0,0,1,309.38,189.51Z"/>
</svg>